<svg width="17" height="17" viewBox="0 0 17 17" fill="none" xmlns="http://www.w3.org/2000/svg">
<path d="M16.4996 11.5078C16.4996 11.8585 16.401 12.1837 16.2429 12.4698L11.1911 6.81747L16.1882 2.44547C16.3826 2.75395 16.4996 3.11632 16.4996 3.5079V11.5078ZM8.49966 7.84377L15.4529 1.75981C15.1676 1.60361 14.8463 1.50781 14.4997 1.50781H2.49962C2.15259 1.50781 1.83118 1.60361 1.547 1.75981L8.49966 7.84377ZM10.4382 7.47569L8.82868 8.88486C8.73454 8.96687 8.61731 9.00783 8.49966 9.00783C8.38193 9.00783 8.26471 8.96687 8.17056 8.88486L6.5607 7.47563L1.44494 13.2002C1.75158 13.3926 2.11094 13.5078 2.49959 13.5078H14.4997C14.8883 13.5078 15.2478 13.3926 15.5543 13.2002L10.4382 7.47569ZM0.811185 2.44543C0.616828 2.75392 0.499634 3.11628 0.499634 3.5079V11.5078C0.499634 11.8586 0.597834 12.1837 0.756479 12.4698L5.80774 6.81652L0.811185 2.44543Z" fill="#CC0033"/>
</svg>
