<svg width="25" height="20" viewBox="0 0 25 20" fill="none" xmlns="http://www.w3.org/2000/svg">
<path id="Vector" d="M24.4287 3.1225C25 5.35 25 10 25 10C25 10 25 14.65 24.4287 16.8775C24.1112 18.1088 23.1825 19.0775 22.0062 19.405C19.87 20 12.5 20 12.5 20C12.5 20 5.13375 20 2.99375 19.405C1.8125 19.0725 0.885 18.105 0.57125 16.8775C3.72529e-08 14.65 0 10 0 10C0 10 3.72529e-08 5.35 0.57125 3.1225C0.88875 1.89125 1.8175 0.9225 2.99375 0.595C5.13375 -2.23517e-07 12.5 0 12.5 0C12.5 0 19.87 -2.23517e-07 22.0062 0.595C23.1875 0.9275 24.115 1.895 24.4287 3.1225ZM10 14.375L17.5 10L10 5.625V14.375Z" fill="#A9A9A9"/>
</svg>
