<svg width="20" height="20" viewBox="0 0 20 20" fill="none" xmlns="http://www.w3.org/2000/svg">
<path id="Vector" d="M9.6 0C4.3008 0 0 4.48 0 10C0 15.52 4.3008 20 9.6 20C14.8992 20 19.2 15.52 19.2 10C19.2 4.48 14.8992 0 9.6 0ZM14.0544 6.8C13.9104 8.38 13.2864 12.22 12.9696 13.99C12.8352 14.74 12.5664 14.99 12.3168 15.02C11.76 15.07 11.3376 14.64 10.8 14.27C9.9552 13.69 9.4752 13.33 8.6592 12.77C7.7088 12.12 8.3232 11.76 8.8704 11.18C9.0144 11.03 11.472 8.7 11.52 8.49C11.5267 8.45819 11.5258 8.42517 11.5174 8.3938C11.5091 8.36244 11.4935 8.33367 11.472 8.31C11.4144 8.26 11.3376 8.28 11.2704 8.29C11.184 8.31 9.84 9.24 7.2192 11.08C6.8352 11.35 6.4896 11.49 6.1824 11.48C5.8368 11.47 5.184 11.28 4.6944 11.11C4.0896 10.91 3.6192 10.8 3.6576 10.45C3.6768 10.27 3.9168 10.09 4.368 9.9C7.1712 8.63 9.0336 7.79 9.9648 7.39C12.6336 6.23 13.1808 6.03 13.5456 6.03C13.6224 6.03 13.8048 6.05 13.92 6.15C14.016 6.23 14.0448 6.34 14.0544 6.42C14.0448 6.48 14.064 6.66 14.0544 6.8Z" fill="#A9A9A9"/>
</svg>
