<svg width="40" height="35" viewBox="0 0 40 35" fill="none" xmlns="http://www.w3.org/2000/svg">
<g id="Group 573">
<path id="Vector" d="M38.406 11.1564L32.2499 5.85645C32.2254 6.35954 32.1287 6.8561 31.9626 7.33132L22.7812 33.2808L38.6806 14.8245C39.1309 14.3018 39.355 13.6213 39.3035 12.9334C39.2517 12.245 38.9286 11.6058 38.4055 11.1559L38.406 11.1564Z" fill="#CC0033"/>
<path id="Vector_2" d="M20.1997 32.8382L29.5062 6.45676C29.7399 5.80456 29.7037 5.08613 29.4055 4.46092C29.1078 3.83531 28.5724 3.35488 27.9185 3.12555L19.6562 0.225586C20.0381 0.956694 20.2351 1.76977 20.2312 2.59464V32.4068V32.4064C20.2334 32.5511 20.2229 32.6954 20.1998 32.838L20.1997 32.8382Z" fill="#CC0033"/>
<path id="Vector_3" d="M15.019 0.000345703H2.6062C1.9152 0.000345703 1.25208 0.274996 0.763362 0.763707C0.274651 1.25242 0 1.91548 0 2.60654V32.4187C0.00653943 33.1058 0.284249 33.7619 0.772089 34.2454C1.26036 34.7288 1.91951 35 2.60622 35H15.019C15.71 35 16.3731 34.7253 16.8619 34.2366C17.3506 33.7479 17.6252 33.0849 17.6252 32.3938V2.59392C17.6217 1.90467 17.3458 1.24505 16.8575 0.759009C16.3688 0.272909 15.7078 0 15.019 0L15.019 0.000345703Z" fill="#CC0033"/>
</g>
</svg>
