<svg width="64" height="64" viewBox="0 0 64 64" fill="none" xmlns="http://www.w3.org/2000/svg">
<g id="Group 166">
<g id="Rectangle" filter="url(#filter0_d_89_1189)">
<rect x="5" y="5" width="54" height="54" rx="27" fill="white"/>
</g>
<path id="Vector" d="M42.3333 37.3333C42.3333 37.8009 42.2018 38.2345 41.9911 38.616L35.2553 31.0795L41.918 25.2502C42.1772 25.6615 42.3333 26.1447 42.3333 26.6668V37.3333ZM31.6667 32.4479L40.9377 24.336C40.5573 24.1277 40.1289 24 39.6667 24H23.6667C23.2039 24 22.7754 24.1277 22.3965 24.336L31.6667 32.4479ZM34.2514 31.9572L32.1054 33.8361C31.9799 33.9454 31.8236 34 31.6667 34C31.5097 34 31.3534 33.9454 31.2279 33.8361L29.0814 31.9571L22.2604 39.5898C22.6693 39.8463 23.1484 40 23.6666 40H39.6667C40.1848 40 40.6642 39.8463 41.0729 39.5898L34.2514 31.9572ZM21.4154 25.2502C21.1563 25.6615 21 26.1446 21 26.6668V37.3333C21 37.801 21.1309 38.2345 21.3425 38.616L28.0775 31.0783L21.4154 25.2502Z" fill="#CC0033"/>
</g>
<defs>
<filter id="filter0_d_89_1189" x="0" y="0" width="64" height="64" filterUnits="userSpaceOnUse" color-interpolation-filters="sRGB">
<feFlood flood-opacity="0" result="BackgroundImageFix"/>
<feColorMatrix in="SourceAlpha" type="matrix" values="0 0 0 0 0 0 0 0 0 0 0 0 0 0 0 0 0 0 127 0" result="hardAlpha"/>
<feOffset/>
<feGaussianBlur stdDeviation="2.5"/>
<feComposite in2="hardAlpha" operator="out"/>
<feColorMatrix type="matrix" values="0 0 0 0 0.566667 0 0 0 0 0.566667 0 0 0 0 0.566667 0 0 0 0.25 0"/>
<feBlend mode="normal" in2="BackgroundImageFix" result="effect1_dropShadow_89_1189"/>
<feBlend mode="normal" in="SourceGraphic" in2="effect1_dropShadow_89_1189" result="shape"/>
</filter>
</defs>
</svg>
