<svg width="48" height="30" viewBox="0 0 48 30" fill="none" xmlns="http://www.w3.org/2000/svg">
<g id="Alex Software White 1 2" clip-path="url(#clip0_288_6920)">
<g id="Clip path group">
<mask id="mask0_288_6920" style="mask-type:luminance" maskUnits="userSpaceOnUse" x="0" y="0" width="48" height="30">
<g id="clip0_2_646">
<path id="Vector" d="M48 0H0V30H48V0Z" fill="white"/>
</g>
</mask>
<g mask="url(#mask0_288_6920)">
<g id="Group">
<path id="Vector_2" d="M22.0338 19.3273H0.581299L11.3035 0.492188L22.0338 19.3273ZM4.86212 16.817C8.9817 16.817 13.6415 16.817 17.7529 16.817C15.6891 13.1911 13.3592 9.10581 11.3035 5.49629C9.2558 9.10581 6.92594 13.1993 4.86212 16.817Z" fill="#303030"/>
<path id="Vector_3" d="M22.0319 19.8196H0.579474C0.410176 19.8196 0.24894 19.7293 0.16026 19.5735C0.0715801 19.4176 0.0715801 19.2371 0.16026 19.0813L10.8825 0.246104C10.9712 0.0902379 11.1324 0 11.3017 0C11.4709 0 11.6322 0.0902379 11.7209 0.246104L22.4511 19.0813C22.5398 19.2371 22.5398 19.4176 22.4511 19.5735C22.3624 19.7293 22.2012 19.8196 22.0319 19.8196ZM1.4179 18.8351H21.1935L11.3017 1.47662L1.4179 18.8351ZM17.7511 17.3092H4.86029C4.69099 17.3092 4.52976 17.219 4.44107 17.0631C4.3524 16.9073 4.3524 16.7186 4.44107 16.5709C6.65807 12.6908 8.93957 8.67105 10.8825 5.2502C10.9712 5.09434 11.1243 5.00411 11.3017 5.00411C11.4709 5.00411 11.6322 5.09434 11.7209 5.2502C12.5674 6.73503 13.4542 8.29368 14.3571 9.86874C15.6469 12.1329 16.9611 14.4299 18.1703 16.5709C18.259 16.7268 18.259 16.9073 18.1703 17.0631C18.0817 17.219 17.9204 17.3092 17.7511 17.3092ZM5.69872 16.3248H16.9127C15.8163 14.4052 14.6634 12.3708 13.5186 10.3609C12.769 9.0402 12.0192 7.73585 11.3017 6.47252C9.58451 9.5078 7.62549 12.9532 5.69872 16.3248Z" fill="#303030"/>
<path id="Vector_4" d="M22.1699 15.8414V4.86523H24.2015V13.7824H28.2404V15.8414H22.1699Z" fill="#303030"/>
<path id="Vector_5" d="M28.2405 16.0055H22.17L22.0088 15.8414V4.86524L22.17 4.70117H24.2016L24.3628 4.86524V13.6183H28.2405L28.4018 13.7823V15.8414L28.2405 16.0055ZM22.3313 15.6774H28.0793V13.9465H24.2016L24.0403 13.7823V5.02931H22.3313V15.6774Z" fill="#303030"/>
<path id="Vector_6" d="M30.0845 15.8414V4.86523H36.8483V6.9243H32.1241V9.24588H36.7516V11.3049H32.1241V13.7906H36.8483V15.8496H30.0845V15.8414Z" fill="#303030"/>
<path id="Vector_7" d="M36.8499 16.0138H30.086L29.9248 15.8496V4.86524L30.086 4.70117H36.8499L37.0111 4.86524V6.92431L36.8499 7.08838H32.2869V9.08181H36.7531L36.9144 9.24588V11.3049L36.7531 11.4691H32.2869V13.6265H36.8499L37.0111 13.7906V15.8496L36.8499 16.0138ZM30.2473 15.6856H36.6887V13.9547H32.1256L31.9644 13.7906V11.3049L32.1256 11.1409H36.5919V9.40995H32.1256L31.9644 9.24588V6.92431L32.1256 6.76024H36.6887V5.02931H30.2473V15.6856Z" fill="#303030"/>
<path id="Vector_8" d="M45.4284 15.8414L43.0341 11.8217L40.6236 15.8414H38.2051L41.6716 10.2139L38.4227 4.86523H40.8412L43.0341 8.61421L45.1946 4.86523H47.6454L44.3965 10.1975L47.8631 15.8414H45.4284Z" fill="#303030"/>
<path id="Vector_9" d="M47.865 16.0055H45.4303L45.2932 15.9235L43.0359 12.1335L40.7625 15.9235L40.6254 16.0055H38.2069L38.0698 15.7512L41.48 10.2139L38.2876 4.95548L38.4245 4.70117H40.8432L40.9802 4.78321L43.0359 8.29428L45.0595 4.78321L45.1965 4.70117H47.6473L47.7844 4.95548L44.5919 10.1974L48.002 15.7512L47.865 16.0055ZM45.5189 15.6774H47.5748L44.2613 10.2877V10.1155L47.3571 5.03751H45.2852L43.173 8.69625H42.8989L40.7545 5.02931H38.7148L41.8106 10.1236V10.296L38.4971 15.6692H40.5368L42.8989 11.7315H43.173L45.5189 15.6774Z" fill="#303030"/>
<path id="Vector_10" d="M0 29.2765L0.435338 28.6612C0.741686 28.9976 1.22539 29.2929 1.85421 29.2929C2.49916 29.2929 2.75714 28.9729 2.75714 28.6695C2.75714 27.7097 0.145113 28.3085 0.145113 26.6269C0.145113 25.8721 0.798119 25.2979 1.7736 25.2979C2.47498 25.2979 3.03124 25.5194 3.45045 25.9295L2.99899 26.5202C2.65234 26.1675 2.17668 26.0033 1.70104 26.0033C1.24152 26.0033 0.943232 26.2249 0.943232 26.5694C0.943232 27.4143 3.54719 26.8893 3.54719 28.5874C3.54719 29.3421 3.02317 29.9902 1.81391 29.9902C0.991603 29.9985 0.395028 29.7113 0 29.2765Z" fill="#303030"/>
<path id="Vector_11" d="M5.94189 27.6454C5.94189 26.2836 6.88513 25.291 8.23146 25.291C9.56972 25.291 10.521 26.2919 10.521 27.6454C10.521 29.0071 9.57777 29.9998 8.23146 29.9998C6.89319 29.9998 5.94189 29.0071 5.94189 27.6454ZM9.71484 27.6454C9.71484 26.702 9.13437 25.9965 8.23146 25.9965C7.32853 25.9965 6.74807 26.702 6.74807 27.6454C6.74807 28.5806 7.32853 29.2943 8.23146 29.2943C9.13437 29.2943 9.71484 28.5806 9.71484 27.6454Z" fill="#303030"/>
<path id="Vector_12" d="M13.1475 29.9171V25.3643H16.2109V26.0697H13.9295V27.251H16.1626V27.9565H13.9295V29.9253H13.1475V29.9171Z" fill="#303030"/>
<path id="Vector_13" d="M19.8569 29.9171V26.0697H18.5024V25.3643H22.0013V26.0697H20.6469V29.9171H19.8569Z" fill="#303030"/>
<path id="Vector_14" d="M27.9585 29.9171L27.0878 26.5619L26.2252 29.9171H25.3868L24.105 25.3643H24.9837L25.8544 28.8753L26.7815 25.3643H27.4022L28.3294 28.8753L29.1919 25.3643H30.0707L28.7969 29.9171H27.9585Z" fill="#303030"/>
<path id="Vector_15" d="M41.4056 29.9171L40.414 28.219H39.632V29.9171H38.8501V25.3643H40.8171C41.7039 25.3643 42.2763 25.9549 42.2763 26.7916C42.2763 27.6038 41.7523 28.0385 41.2202 28.1288L42.3167 29.9171H41.4056ZM41.4782 26.7916C41.4782 26.3569 41.1557 26.0697 40.7123 26.0697H39.6401V27.5135H40.7123C41.1557 27.5135 41.4782 27.2264 41.4782 26.7916Z" fill="#303030"/>
<path id="Vector_16" d="M44.938 29.9171V25.3643H48.0015V26.0697H45.72V27.251H47.9532V27.9565H45.72V29.2198H48.0015V29.9253H44.938V29.9171Z" fill="#303030"/>
<path id="Vector_17" d="M36.3818 29.9176H32.1413C31.9962 29.9176 31.8672 29.8355 31.7947 29.7125C31.7221 29.5894 31.7221 29.4336 31.7947 29.3023L32.8508 27.432L33.9149 25.5616C33.9875 25.4385 34.1164 25.3564 34.2616 25.3564C34.4066 25.3564 34.5357 25.4385 34.6082 25.5616L35.6724 27.432L36.7285 29.3023C36.8011 29.4254 36.8011 29.5894 36.7285 29.7125C36.6559 29.8355 36.5269 29.9176 36.3818 29.9176ZM32.8346 29.0973H35.6805L34.971 27.8421L34.2535 26.587L33.536 27.8421L32.8346 29.0973Z" fill="#303030"/>
</g>
</g>
</g>
</g>
<defs>
<clipPath id="clip0_288_6920">
<rect width="48" height="30" fill="white"/>
</clipPath>
</defs>
</svg>
