<svg width="22" height="20" viewBox="0 0 22 20" xmlns="http://www.w3.org/2000/svg">
<path d="M21.6056 3.25688C21.468 3.07337 21.2616 2.9817 21.0322 2.9817H5.38996L4.86248 0.573396C4.79368 0.229424 4.49547 0 4.15151 0H0.734029C0.321266 0 0 0.321094 0 0.734029C0 1.14679 0.321094 1.46806 0.734029 1.46806H3.57811L6.55981 15.0919C6.62861 15.4359 6.92682 15.6653 7.27078 15.6653H18.8534C19.2661 15.6653 19.5874 15.3442 19.5874 14.9313C19.5874 14.5185 19.2663 14.1973 18.8534 14.1973H7.86712L7.50011 12.523H19.2203C19.5643 12.523 19.8625 12.2936 19.9313 11.9496L21.7662 3.8762C21.7891 3.66981 21.7434 3.44037 21.6056 3.25688Z" />
<path d="M19.082 18.2569C19.082 19.2196 18.3016 20 17.3389 20C16.3761 20 15.5957 19.2196 15.5957 18.2569C15.5957 17.2941 16.3761 16.5137 17.3389 16.5137C18.3016 16.5137 19.082 17.2941 19.082 18.2569Z" fill="#6D6D6D"/>
<path d="M10.5728 18.2569C10.5728 19.2196 9.7924 20 8.82975 20C7.8671 20 7.08667 19.2196 7.08667 18.2569C7.08667 17.2941 7.8671 16.5137 8.82975 16.5137C9.7924 16.5137 10.5728 17.2941 10.5728 18.2569Z" fill="#6D6D6D"/>
</svg>
