<svg width="64" height="64" viewBox="0 0 64 64" fill="none" xmlns="http://www.w3.org/2000/svg">
<g id="Group 165">
<g id="Rectangle" filter="url(#filter0_d_89_1184)">
<rect x="5" y="5" width="54" height="54" rx="27" fill="white"/>
</g>
<path id="Vector" d="M38.8199 34.5114C38.0971 33.7978 37.1948 33.7978 36.4766 34.5114C35.9287 35.0547 35.3809 35.5979 34.8422 36.1504C34.6949 36.3023 34.5706 36.3345 34.3911 36.2333C34.0366 36.0399 33.6591 35.8834 33.3184 35.6716C31.7301 34.6726 30.3996 33.3881 29.221 31.9425C28.6363 31.2243 28.1161 30.4555 27.7524 29.59C27.6787 29.415 27.6925 29.2999 27.8352 29.1572C28.3831 28.6278 28.9171 28.0845 29.4558 27.5413C30.2062 26.7862 30.2062 25.9023 29.4512 25.1427C29.023 24.7099 28.5949 24.2864 28.1667 23.8536C27.7248 23.4116 27.2874 22.9651 26.8408 22.5277C26.118 21.8233 25.2157 21.8233 24.4975 22.5323C23.945 23.0756 23.4156 23.6326 22.8539 24.1667C22.3337 24.6593 22.0713 25.2624 22.016 25.9668C21.9286 27.1131 22.2094 28.195 22.6053 29.2493C23.4156 31.4315 24.6494 33.3697 26.1456 35.1468C28.1667 37.5499 30.5791 39.4513 33.4013 40.8233C34.6719 41.4402 35.9886 41.9144 37.4204 41.9926C38.4056 42.0479 39.2619 41.7993 39.9479 41.0304C40.4175 40.5056 40.9469 40.0268 41.4441 39.525C42.1807 38.7792 42.1853 37.8768 41.4533 37.1402C40.5786 36.2609 39.6993 35.3862 38.8199 34.5114Z" fill="#CC0033"/>
</g>
<defs>
<filter id="filter0_d_89_1184" x="0" y="0" width="64" height="64" filterUnits="userSpaceOnUse" color-interpolation-filters="sRGB">
<feFlood flood-opacity="0" result="BackgroundImageFix"/>
<feColorMatrix in="SourceAlpha" type="matrix" values="0 0 0 0 0 0 0 0 0 0 0 0 0 0 0 0 0 0 127 0" result="hardAlpha"/>
<feOffset/>
<feGaussianBlur stdDeviation="2.5"/>
<feComposite in2="hardAlpha" operator="out"/>
<feColorMatrix type="matrix" values="0 0 0 0 0.566667 0 0 0 0 0.566667 0 0 0 0 0.566667 0 0 0 0.25 0"/>
<feBlend mode="normal" in2="BackgroundImageFix" result="effect1_dropShadow_89_1184"/>
<feBlend mode="normal" in="SourceGraphic" in2="effect1_dropShadow_89_1184" result="shape"/>
</filter>
</defs>
</svg>
