<svg width="20" height="20" viewBox="0 0 20 20" xmlns="http://www.w3.org/2000/svg">
<path d="M14.4446 4.44442C14.4446 5.6231 13.9763 6.75357 13.1428 7.58706C12.3093 8.42055 11.1788 8.88884 10.0001 8.88884C8.82145 8.88884 7.69098 8.42055 6.85749 7.58706C6.02401 6.75357 5.55572 5.6231 5.55572 4.44442C5.55572 3.26573 6.02401 2.13527 6.85749 1.30178C7.69098 0.468291 8.82145 0 10.0001 0C11.1788 0 12.3093 0.468291 13.1428 1.30178C13.9763 2.13527 14.4446 3.26573 14.4446 4.44442ZM0.0117012 18.6138C-0.0369731 18.9624 0.0676612 19.315 0.298469 19.5807C0.529278 19.8466 0.863784 19.9994 1.21581 20H18.7844H18.7842C19.1362 19.9994 19.4707 19.8465 19.7015 19.5807C19.9323 19.315 20.037 18.9624 19.9883 18.6138C19.6533 16.2028 18.4576 13.9944 16.6218 12.396C14.786 10.7975 12.4341 9.91704 10 9.91704C7.56591 9.91704 5.21394 10.7975 3.37824 12.396C1.54246 13.9942 0.346711 16.2027 0.0117524 18.6138H0.0117012Z" />
</svg>
