<svg width="65" height="65" viewBox="0 0 65 65" fill="none" xmlns="http://www.w3.org/2000/svg">
<g id="Group 168">
<g id="Ellipse 12" filter="url(#filter0_d_89_1195)">
<circle cx="32.5" cy="32.5" r="27.5" fill="white"/>
</g>
<path id="Vector" d="M32.99 22C27.47 22 23 26.48 23 32C23 37.52 27.47 42 32.99 42C38.52 42 43 37.52 43 32C43 26.48 38.52 22 32.99 22ZM37 36C36.9075 36.0927 36.7976 36.1663 36.6766 36.2164C36.5557 36.2666 36.426 36.2924 36.295 36.2924C36.164 36.2924 36.0343 36.2666 35.9134 36.2164C35.7924 36.1663 35.6825 36.0927 35.59 36L32.3 32.71C32.2055 32.6174 32.1303 32.5069 32.0788 32.3851C32.0273 32.2632 32.0005 32.1323 32 32V28C32 27.45 32.45 27 33 27C33.55 27 34 27.45 34 28V31.59L37 34.59C37.39 34.98 37.39 35.61 37 36Z" fill="#CC0033"/>
</g>
<defs>
<filter id="filter0_d_89_1195" x="0" y="0" width="65" height="65" filterUnits="userSpaceOnUse" color-interpolation-filters="sRGB">
<feFlood flood-opacity="0" result="BackgroundImageFix"/>
<feColorMatrix in="SourceAlpha" type="matrix" values="0 0 0 0 0 0 0 0 0 0 0 0 0 0 0 0 0 0 127 0" result="hardAlpha"/>
<feOffset/>
<feGaussianBlur stdDeviation="2.5"/>
<feComposite in2="hardAlpha" operator="out"/>
<feColorMatrix type="matrix" values="0 0 0 0 0.566667 0 0 0 0 0.566667 0 0 0 0 0.566667 0 0 0 0.25 0"/>
<feBlend mode="normal" in2="BackgroundImageFix" result="effect1_dropShadow_89_1195"/>
<feBlend mode="normal" in="SourceGraphic" in2="effect1_dropShadow_89_1195" result="shape"/>
</filter>
</defs>
</svg>
