<svg width="16" height="17" viewBox="0 0 16 17" fill="none" xmlns="http://www.w3.org/2000/svg">
<g id="Icon">
<path id="Vector" d="M12.2744 9.26581C11.7684 8.7663 11.1368 8.7663 10.634 9.26581C10.2505 9.64609 9.86705 10.0264 9.49 10.4131C9.38687 10.5194 9.29986 10.542 9.17418 10.4711C8.92603 10.3357 8.66177 10.2262 8.4233 10.0779C7.31148 9.37861 6.38012 8.47948 5.55512 7.46757C5.14584 6.96483 4.78168 6.42664 4.52709 5.82078C4.47553 5.69832 4.4852 5.61776 4.5851 5.51785C4.9686 5.14725 5.34243 4.76697 5.71948 4.3867C6.24477 3.85818 6.24477 3.23943 5.71626 2.70769C5.41655 2.40476 5.11684 2.10827 4.81713 1.80534C4.50776 1.49596 4.2016 1.18337 3.889 0.877212C3.38305 0.384144 2.7514 0.384144 2.24867 0.880434C1.86195 1.26071 1.49134 1.65065 1.09818 2.02448C0.734015 2.36931 0.550323 2.79148 0.511651 3.28454C0.45042 4.08699 0.647003 4.84432 0.924152 5.58231C1.49134 7.10985 2.35502 8.46659 3.40238 9.71054C4.81713 11.3928 6.50581 12.7237 8.4813 13.6841C9.37076 14.1159 10.2924 14.4479 11.2947 14.5026C11.9843 14.5413 12.5838 14.3673 13.0639 13.8291C13.3926 13.4617 13.7633 13.1266 14.1113 12.7753C14.6269 12.2532 14.6301 11.6216 14.1177 11.106C13.5054 10.4904 12.8899 9.87812 12.2744 9.26581Z" fill="#CC0033"/>
</g>
</svg>
