<svg width="18" height="18" viewBox="0 0 18 18" fill="none" xmlns="http://www.w3.org/2000/svg">
<path fill-rule="evenodd" clip-rule="evenodd" d="M3.3246 1.26069C4.55478 0.438724 6.00108 0 7.4806 0H7.48064C9.46457 0.000126284 11.3672 0.788285 12.7701 2.19112C14.1729 3.59395 14.9611 5.49656 14.9612 7.48046V7.48051C14.9612 8.96001 14.5225 10.4063 13.7005 11.6365C12.8785 12.8666 11.7102 13.8254 10.3433 14.3916C8.9764 14.9578 7.4723 15.1059 6.02121 14.8173C4.57012 14.5286 3.2372 13.8162 2.19102 12.77C1.14484 11.7239 0.432381 10.391 0.143741 8.93988C-0.1449 7.48881 0.00324117 5.98472 0.56943 4.61784C1.13562 3.25096 2.09443 2.08266 3.3246 1.26069ZM7.48056 1.38296C6.27458 1.38297 5.09568 1.74058 4.09294 2.41058C3.09019 3.08059 2.30865 4.03289 1.84713 5.14708C1.38562 6.26126 1.26486 7.48727 1.50014 8.67008C1.73542 9.85289 2.31616 10.9394 3.16893 11.7921C4.0217 12.6449 5.10819 13.2256 6.29101 13.4609C7.47384 13.6962 8.69987 13.5754 9.81406 13.1139C10.9283 12.6524 11.8806 11.8709 12.5506 10.8681C13.2206 9.8654 13.5782 8.68652 13.5782 7.48055M7.4806 1.38296C9.09775 1.38307 10.6486 2.02553 11.7921 3.16902C12.9356 4.3125 13.5781 5.86337 13.5782 7.48051" fill="#6D6D6D"/>
<path fill-rule="evenodd" clip-rule="evenodd" d="M12.1238 12.1231C12.3918 11.8551 12.8263 11.8551 13.0943 12.1231L17.7998 16.8285C18.0678 17.0965 18.0678 17.531 17.7998 17.799C17.5318 18.067 17.0973 18.067 16.8293 17.799L12.1238 13.0936C11.8559 12.8256 11.8559 12.3911 12.1238 12.1231Z" fill="#6D6D6D"/>
</svg>
