<svg width="21" height="22" viewBox="0 0 21 22" fill="none" xmlns="http://www.w3.org/2000/svg">
<path id="Vector" d="M13.332 10.5208C13.332 11.1867 13.1424 11.8376 12.7873 12.3913C12.4322 12.9449 11.9274 13.3764 11.3368 13.6312C10.7463 13.886 10.0964 13.9527 9.46947 13.8228C8.84252 13.6929 8.26663 13.3723 7.81463 12.9014C7.36263 12.4306 7.05481 11.8307 6.9301 11.1776C6.80539 10.5246 6.8694 9.84764 7.11402 9.23246C7.35864 8.61729 7.7729 8.09149 8.3044 7.72155C8.8359 7.35162 9.46077 7.15417 10.1 7.15417C10.9564 7.15694 11.7769 7.51253 12.3824 8.14331C12.988 8.77408 13.3293 9.62879 13.332 10.5208ZM20.2 5.89167V15.15C20.2 16.7126 19.6041 18.2111 18.5434 19.316C17.4827 20.4209 16.0441 21.0417 14.544 21.0417H5.656C4.15594 21.0417 2.71731 20.4209 1.6566 19.316C0.595898 18.2111 0 16.7126 0 15.15V5.89167C0 4.3291 0.595898 2.83053 1.6566 1.72563C2.71731 0.620727 4.15594 0 5.656 0H14.544C16.0441 0 17.4827 0.620727 18.5434 1.72563C19.6041 2.83053 20.2 4.3291 20.2 5.89167ZM14.948 10.5208C14.948 9.52204 14.6637 8.54567 14.131 7.7152C13.5983 6.88474 12.8411 6.23746 11.9552 5.85524C11.0694 5.47302 10.0946 5.37301 9.1542 5.56787C8.21378 5.76272 7.34995 6.24369 6.67195 6.94994C5.99394 7.6562 5.53221 8.55602 5.34515 9.53563C5.15809 10.5152 5.2541 11.5306 5.62103 12.4534C5.98797 13.3762 6.60935 14.1649 7.4066 14.7198C8.20385 15.2747 9.14116 15.5708 10.1 15.5708C11.3858 15.5708 12.6189 15.0388 13.5281 14.0917C14.4372 13.1447 14.948 11.8602 14.948 10.5208ZM16.564 5.05C16.564 4.8003 16.4929 4.55621 16.3597 4.34859C16.2266 4.14098 16.0373 3.97916 15.8158 3.8836C15.5943 3.78805 15.3507 3.76304 15.1156 3.81176C14.8804 3.86047 14.6645 3.98071 14.495 4.15728C14.3255 4.33384 14.2101 4.5588 14.1633 4.8037C14.1165 5.0486 14.1405 5.30245 14.2323 5.53314C14.324 5.76383 14.4793 5.96101 14.6786 6.09973C14.878 6.23846 15.1123 6.3125 15.352 6.3125C15.6734 6.3125 15.9817 6.17949 16.209 5.94272C16.4363 5.70596 16.564 5.38484 16.564 5.05Z" fill="#A9A9A9"/>
</svg>
