<svg width="15" height="15" viewBox="0 0 15 15" fill="none" xmlns="http://www.w3.org/2000/svg">
<path fill-rule="evenodd" clip-rule="evenodd" d="M0 1.36332C0 0.610413 0.605089 0 1.36334 0H5.45486C6.20788 0 6.8183 0.605083 6.8183 1.36332V5.4548C6.8183 6.20782 6.21321 6.81823 5.45486 6.81823H1.36334C0.61042 6.81823 0 6.21315 0 5.4548V1.36332ZM0 9.5452C0 8.79218 0.605089 8.18177 1.36334 8.18177H5.45486C6.20788 8.18177 6.8183 8.78685 6.8183 9.5452V13.6367C6.8183 14.3896 6.21321 15 5.45486 15H1.36334C0.61042 15 0 14.3949 0 13.6367V9.5452ZM8.1817 9.5452C8.1817 8.79218 8.78679 8.18177 9.54514 8.18177H13.6367C14.3896 8.18177 15 8.78685 15 9.5452V13.6367C15 14.3896 14.3949 15 13.6367 15H9.54514C8.79212 15 8.1817 14.3949 8.1817 13.6367V9.5452ZM8.1817 1.36332C8.1817 0.610413 8.78679 0 9.54514 0H13.6367C14.3896 0 15 0.605083 15 1.36332V5.4548C15 6.20782 14.3949 6.81823 13.6367 6.81823H9.54514C8.79212 6.81823 8.1817 6.21315 8.1817 5.4548V1.36332Z" fill="white"/>
</svg>
