<svg width="40" height="55" viewBox="0 0 40 55" fill="none" xmlns="http://www.w3.org/2000/svg">
<path fill-rule="evenodd" clip-rule="evenodd" d="M5.67967 0.0112742C5.84978 0.0566211 5.95973 0.227807 5.93478 0.408452L4.23883 12.6878L6.92844 19.4595L10.7541 22.0285L13.6869 22.5397L15.3047 22.4742L15.9431 21.8952C15.9991 21.8444 16.0694 21.8139 16.1435 21.808L19.6782 21.5306C19.6954 21.5293 19.7128 21.5293 19.73 21.5306L23.2649 21.808C23.339 21.8139 23.4093 21.8444 23.4653 21.8952L24.1037 22.4742L25.7214 22.5397L28.6543 22.0285L32.48 19.4595L35.1694 12.6878L33.4736 0.408446C33.4487 0.2278 33.5587 0.0566166 33.7288 0.0112726C33.8989 -0.0340713 34.0745 0.0609749 34.1363 0.231795L38.6615 12.7383C38.6871 12.8092 38.6904 12.8866 38.671 12.9595L36.4968 21.1296C36.4786 21.198 36.4413 21.2592 36.3895 21.3055L35.367 22.2189L38.6999 21.9519C38.823 21.942 38.9418 22.0015 39.0111 22.1077C39.0804 22.214 39.0896 22.3506 39.0352 22.4659L38.6652 23.2501C38.6505 23.2812 38.6315 23.3099 38.6089 23.3354L35.7798 26.5155L31.7959 31.9349C31.753 31.9933 31.6939 32.0365 31.6266 32.0587L28.0458 33.2407L28.5038 37.7882C28.5098 37.847 28.5015 37.9065 28.4799 37.9612L26.0202 44.1866C26.028 44.2057 26.0342 44.2259 26.0388 44.2468C26.0651 44.3677 26.0291 44.4881 25.9529 44.5718L26.5624 50.0155C26.5772 50.148 26.5198 50.2781 26.4135 50.3529L19.897 54.9385C19.7805 55.0205 19.6277 55.0205 19.5112 54.9385L12.9946 50.3529C12.8883 50.2781 12.8309 50.148 12.8458 50.0155L13.4553 44.5718C13.3791 44.4881 13.3431 44.3677 13.3694 44.2468C13.374 44.2259 13.3802 44.2057 13.388 44.1866L10.9285 37.9612C10.9069 37.9065 10.8986 37.847 10.9046 37.7882L11.3626 33.2407L7.78179 32.0587C7.71449 32.0365 7.65539 31.9933 7.61252 31.935L3.62844 26.5155L0.799497 23.3353C0.776861 23.3099 0.757905 23.2812 0.743223 23.2501L0.373165 22.4659C0.318784 22.3506 0.328003 22.214 0.39732 22.1077C0.466638 22.0015 0.585421 21.942 0.708561 21.9519L4.04118 22.2189L3.01871 21.3055C2.96694 21.2592 2.92957 21.198 2.91137 21.1296L0.737168 12.9595C0.717763 12.8866 0.721114 12.8092 0.746738 12.7383L5.27209 0.231789C5.3339 0.0609704 5.50957 -0.0340729 5.67967 0.0112742ZM3.82997 22.9193L1.25632 22.7131L1.27327 22.749L3.82997 22.9193ZM2.73139 24.4535L4.07612 25.9652L6.5784 26.6378L2.73139 24.4535ZM8.73331 27.9557L4.77013 26.8904L7.76538 30.9648L8.73331 27.9557ZM9.13082 31.7536L11.3098 32.4729L11.1247 31.2194L9.13082 31.7536ZM11.9644 32.1908L12.0655 32.8754L13.533 35.8047L15.0906 36.7029L11.9644 32.1908ZM16.6324 38.0491L17.1037 44.5356L19.36 43.5809V37.177L16.6324 38.0491ZM20.0482 37.177L22.7758 38.0491L22.3047 44.5356L20.0482 43.5809V37.177ZM19.36 44.3531L17.0834 45.3164L15.7072 50.563L19.36 51.0071V44.3531ZM20.0482 51.0071V44.3531L22.3251 45.3164L23.7012 50.563L20.0482 51.0071ZM19.36 51.7272L16.3975 51.367L19.36 53.8875V51.7272ZM13.5605 49.8204L15.0374 50.3971L16.3696 45.3182L14.1237 44.7906L13.5605 49.8204ZM14.0765 44.0463L16.4179 44.5964L15.9394 38.0104L13.1086 36.3779C13.0496 36.3438 13.0016 36.2925 12.9704 36.2303L11.9571 34.2078L11.5981 37.773L14.0765 44.0463ZM25.8477 49.8204L25.2845 44.7906L23.0389 45.3182L24.371 50.397L25.8477 49.8204ZM23.0109 51.367L20.0482 51.7272V53.8875L23.0109 51.367ZM22.9905 44.5964L25.3317 44.0463L27.8103 37.7729L27.4512 34.2078L26.438 36.2303C26.4068 36.2925 26.3588 36.3438 26.2997 36.3779L23.4688 38.0104L22.9905 44.5964ZM24.3176 36.703L25.8754 35.8047L27.3429 32.8754L27.444 32.1907L24.3176 36.703ZM28.2837 31.2194L28.0986 32.4729L30.2776 31.7536L28.2837 31.2194ZM31.643 30.9648L34.6381 26.8905L30.6751 27.9557L31.643 30.9648ZM32.8301 26.6377L35.3321 25.9652L36.6768 24.4536L32.8301 26.6377ZM38.1351 22.749L38.1521 22.7131L35.5775 22.9193L38.1351 22.749ZM34.2071 22.312L35.3583 21.2835L33.6274 21.0443L31.3964 22.5422L34.2071 22.312ZM29.9521 22.6604L33.032 20.5926L32.6894 20.1704L28.968 22.6693C28.9286 22.6958 28.8845 22.7136 28.8382 22.7216L25.8004 23.2512C25.7771 23.2552 25.7536 23.2568 25.73 23.2558L24.9298 23.2234L26.2123 24.3865L27.5994 23.5506L28.7032 22.8061C28.7513 22.7737 28.8064 22.7542 28.8635 22.7495L29.9521 22.6604ZM25.8732 25.0282L23.7476 23.1005C23.7443 23.0976 23.7412 23.0947 23.738 23.0918L23.099 22.5122L20.0482 22.2728V27.9828L27.4764 30.2422L25.8732 25.0282ZM28.8755 28.9783L29.8822 27.5933L29.7983 25.7612L28.8755 28.9783ZM30.4057 23.9804L36.8283 23.5527L30.5494 27.1177L30.4057 23.9804ZM30.1126 28.4628L28.5869 30.562L30.9954 31.2074L30.1126 28.4628ZM28.8268 26.6445L29.6301 23.8438L29.1762 23.6316L28.8268 26.6445ZM28.4609 23.8221L27.9668 24.1553C27.9639 24.1573 27.961 24.1592 27.958 24.1611C27.9561 24.1623 27.9541 24.1635 27.9521 24.1647L26.5838 24.9894L27.8486 29.1028L28.4609 23.8221ZM27.4379 30.9756L20.0482 28.728V36.4287L23.0047 37.374L27.4379 30.9756ZM19.36 28.728V36.4287L16.4035 37.374L11.9705 30.9756L19.36 28.728ZM19.36 27.9828V22.2728L16.3094 22.5122L15.6706 23.0916C15.6673 23.0947 15.664 23.0977 15.6606 23.1006L13.5352 25.0282L11.932 30.2422L19.36 27.9828ZM11.5598 29.1028L12.8246 24.9894L11.4561 24.1647C11.4511 24.1617 11.4462 24.1586 11.4413 24.1553L10.9475 23.8222L11.5598 29.1028ZM9.45635 22.6604L10.5449 22.7495C10.602 22.7542 10.6571 22.7737 10.7052 22.8061L11.8088 23.5506L13.1961 24.3865L14.4786 23.2234L13.6784 23.2558C13.6548 23.2568 13.6313 23.2552 13.608 23.2512L10.5702 22.7216C10.5239 22.7136 10.4797 22.6958 10.4403 22.6693L6.71903 20.1704L6.37621 20.5926L9.45635 22.6604ZM5.96325 19.9922L3.23846 13.1288L3.65992 13.1048L6.25352 19.6347L5.96325 19.9922ZM3.58432 12.3928L4.18963 8.01012L3.17728 12.416L3.58432 12.3928ZM2.50877 13.166L1.51642 13.2046L3.49478 20.6388L5.37246 20.3793L2.50877 13.166ZM4.04987 21.2835L5.20114 22.312L8.01193 22.5422L5.78083 21.0443L4.04987 21.2835ZM1.57302 12.4867L2.46143 12.4522L3.98533 5.81993L1.57302 12.4867ZM9.00271 23.9804L2.58015 23.5527L8.85904 27.1177L9.00271 23.9804ZM9.52623 27.5933L10.5329 28.9783L9.61013 25.7612L9.52623 27.5933ZM9.77829 23.8438L10.2322 23.6316L10.5816 26.6444L9.77829 23.8438ZM10.8215 30.562L9.29581 28.4628L8.41298 31.2074L10.8215 30.562ZM33.1549 19.6348L33.445 19.9921L36.1699 13.1288L35.7483 13.1047L33.1549 19.6348ZM35.8239 12.3928L36.2311 12.416L35.2185 8.00868L35.8239 12.3928ZM35.4232 5.8206L37.8352 12.4867L36.947 12.4522L35.4232 5.8206ZM36.8996 13.166L34.0357 20.3793L35.9134 20.6388L37.8918 13.2046L36.8996 13.166Z" fill="black"/>
</svg>
